<svg width="147" height="63" viewBox="0 0 147 63" fill="none" xmlns="http://www.w3.org/2000/svg">
<path d="M13.2558 49.896C9.41575 49.896 6.34375 48.9147 4.03975 46.952C1.77842 44.9893 0.64775 42.2373 0.64775 38.696C0.64775 34.8987 2.01308 32.104 4.74375 30.312C7.51708 28.4773 11.2291 27.56 15.8798 27.56H22.9838V27.24C22.9838 23.272 20.9784 21.288 16.9678 21.288C15.9011 21.288 14.6211 21.3093 13.1278 21.352C11.6344 21.3947 10.1198 21.4587 8.58375 21.544C7.09042 21.5867 5.74642 21.6507 4.55175 21.736V14.184C6.00242 14.056 7.73042 13.9493 9.73575 13.864C11.7838 13.7787 13.6611 13.736 15.3678 13.736C20.7011 13.736 24.7118 14.824 27.3998 17C30.1304 19.1333 31.4958 22.6107 31.4958 27.432V49H24.4558V42.344C22.8771 47.3787 19.1438 49.896 13.2558 49.896ZM15.7518 43.56C16.9464 43.56 18.0771 43.3467 19.1438 42.92C20.2104 42.4507 21.0851 41.6827 21.7678 40.616C22.4931 39.5067 22.8984 38.0133 22.9838 36.136V32.872H15.7518C13.7038 32.872 12.1251 33.384 11.0158 34.408C9.94908 35.3893 9.41575 36.6693 9.41575 38.248C9.41575 39.8693 9.94908 41.1707 11.0158 42.152C12.1251 43.0907 13.7038 43.56 15.7518 43.56ZM50.8808 49.896C47.0408 49.896 43.9688 48.9147 41.6648 46.952C39.4034 44.9893 38.2728 42.2373 38.2728 38.696C38.2728 34.8987 39.6381 32.104 42.3688 30.312C45.1421 28.4773 48.8541 27.56 53.5048 27.56H60.6088V27.24C60.6088 23.272 58.6034 21.288 54.5928 21.288C53.5261 21.288 52.2461 21.3093 50.7528 21.352C49.2594 21.3947 47.7448 21.4587 46.2088 21.544C44.7154 21.5867 43.3714 21.6507 42.1768 21.736V14.184C43.6274 14.056 45.3554 13.9493 47.3608 13.864C49.4088 13.7787 51.2861 13.736 52.9928 13.736C58.3261 13.736 62.3368 14.824 65.0248 17C67.7554 19.1333 69.1208 22.6107 69.1208 27.432V49H62.0808V42.344C60.5021 47.3787 56.7688 49.896 50.8808 49.896ZM53.3768 43.56C54.5714 43.56 55.7021 43.3467 56.7688 42.92C57.8354 42.4507 58.7101 41.6827 59.3928 40.616C60.1181 39.5067 60.5234 38.0133 60.6088 36.136V32.872H53.3768C51.3288 32.872 49.7501 33.384 48.6408 34.408C47.5741 35.3893 47.0408 36.6693 47.0408 38.248C47.0408 39.8693 47.5741 41.1707 48.6408 42.152C49.7501 43.0907 51.3288 43.56 53.3768 43.56Z" fill="#FF0202"/>
<path d="M84.2178 9.832C82.4684 9.832 81.1884 9.384 80.3778 8.488C79.5671 7.54933 79.1618 6.376 79.1618 4.968C79.1618 3.56 79.5671 2.408 80.3778 1.512C81.1884 0.615999 82.4684 0.167999 84.2178 0.167999C85.9671 0.167999 87.2471 0.615999 88.0578 1.512C88.9111 2.408 89.3378 3.56 89.3378 4.968C89.3378 6.376 88.9111 7.54933 88.0578 8.488C87.2471 9.384 85.9671 9.832 84.2178 9.832ZM73.7218 62.12V54.504H76.4098C77.9884 54.504 79.2044 54.0773 80.0578 53.224C80.9111 52.3707 81.3378 51.1547 81.3378 49.576V20.904H76.2818V14.248H89.9138V49.064C89.9138 53.8853 88.8044 57.256 86.5858 59.176C84.3671 61.1387 80.7831 62.12 75.8338 62.12H73.7218ZM109.756 49.896C105.916 49.896 102.844 48.9147 100.54 46.952C98.2784 44.9893 97.1478 42.2373 97.1478 38.696C97.1478 34.8987 98.5131 32.104 101.244 30.312C104.017 28.4773 107.729 27.56 112.38 27.56H119.484V27.24C119.484 23.272 117.478 21.288 113.468 21.288C112.401 21.288 111.121 21.3093 109.628 21.352C108.134 21.3947 106.62 21.4587 105.084 21.544C103.59 21.5867 102.246 21.6507 101.052 21.736V14.184C102.502 14.056 104.23 13.9493 106.236 13.864C108.284 13.7787 110.161 13.736 111.868 13.736C117.201 13.736 121.212 14.824 123.9 17C126.63 19.1333 127.996 22.6107 127.996 27.432V49H120.956V42.344C119.377 47.3787 115.644 49.896 109.756 49.896ZM112.252 43.56C113.446 43.56 114.577 43.3467 115.644 42.92C116.71 42.4507 117.585 41.6827 118.268 40.616C118.993 39.5067 119.398 38.0133 119.484 36.136V32.872H112.252C110.204 32.872 108.625 33.384 107.516 34.408C106.449 35.3893 105.916 36.6693 105.916 38.248C105.916 39.8693 106.449 41.1707 107.516 42.152C108.625 43.0907 110.204 43.56 112.252 43.56Z" fill="#8294F5"/>
<path d="M136.117 49V38.76H146.101V49H136.117Z" fill="black" fill-opacity="0.4"/>
</svg>
